<svg xmlns="http://www.w3.org/2000/svg" viewBox="0 0 1440 320"><path fill="rgb(123, 154, 224)" fill-opacity="1" d="M0,32L17.1,32C34.3,32,69,32,103,48C137.1,64,171,96,206,128C240,160,274,192,309,202.7C342.9,213,377,203,411,186.7C445.7,171,480,149,514,133.3C548.6,117,583,107,617,112C651.4,117,686,139,720,138.7C754.3,139,789,117,823,144C857.1,171,891,245,926,256C960,267,994,213,1029,197.3C1062.9,181,1097,203,1131,213.3C1165.7,224,1200,224,1234,202.7C1268.6,181,1303,139,1337,133.3C1371.4,128,1406,160,1423,176L1440,192L1440,0L1422.9,0C1405.7,0,1371,0,1337,0C1302.9,0,1269,0,1234,0C1200,0,1166,0,1131,0C1097.1,0,1063,0,1029,0C994.3,0,960,0,926,0C891.4,0,857,0,823,0C788.6,0,754,0,720,0C685.7,0,651,0,617,0C582.9,0,549,0,514,0C480,0,446,0,411,0C377.1,0,343,0,309,0C274.3,0,240,0,206,0C171.4,0,137,0,103,0C68.6,0,34,0,17,0L0,0Z"></path>

<text x="90%" y="18%" font-size="40" fill="white" text-anchor="end" font-family="Trebuchet MS, sans-serif">
    Hi, I'm Priyanka!
  </text>
  <text x="90%" y="28%" font-size="25" fill="white" text-anchor="end" font-family="Trebuchet MS, sans-serif">
    QA Automation Engineer
  </text>
  <text x="90%" y="38%" font-size="25" fill="white" text-anchor="end" font-family="Trebuchet MS, sans-serif">
    I love finding bugs in software and in my little garden!
  </text>
</svg>
